<?xml version="1.0" standalone="no"?>
<!DOCTYPE svg PUBLIC "-//W3C//DTD SVG 20010904//EN"
 "http://www.w3.org/TR/2001/REC-SVG-20010904/DTD/svg10.dtd">
<svg version="1.0" xmlns="http://www.w3.org/2000/svg"
 width="250.000000pt" height="250.000000pt" viewBox="0 0 250.000000 250.000000"
 preserveAspectRatio="xMidYMid meet">

<g transform="translate(0.000000,250.000000) scale(0.100000,-0.100000)"
fill="#000000" stroke="none">
<path d="M1348 2329 c-10 -5 -18 -17 -18 -26 0 -16 68 -357 95 -474 26 -113
43 -100 -192 -147 -115 -23 -251 -51 -302 -62 -52 -11 -98 -17 -102 -13 -3 5
-32 134 -63 287 -31 154 -62 284 -69 288 -6 4 -20 8 -29 8 -40 0 -38 -29 22
-316 32 -153 55 -282 51 -287 -4 -4 -126 -32 -272 -61 -291 -60 -295 -61 -303
-82 -7 -19 10 -54 27 -54 7 0 137 25 290 57 152 31 279 54 281 52 2 -2 25
-105 50 -229 25 -124 53 -258 61 -299 9 -41 12 -77 8 -82 -4 -4 -125 -31 -268
-60 -143 -28 -270 -56 -283 -61 -18 -6 -23 -14 -20 -36 5 -45 13 -44 408 38
176 36 186 37 193 8 15 -61 107 -508 107 -521 0 -23 27 -40 55 -33 16 4 25 13
25 27 0 15 -58 310 -106 540 -4 15 -2 29 3 32 4 3 44 13 88 22 429 89 510 104
516 98 4 -5 30 -120 58 -258 61 -300 63 -306 83 -318 18 -12 46 -3 54 16 2 7
-22 139 -54 293 -32 153 -56 282 -52 286 3 4 114 30 245 57 375 78 352 70 341
115 -4 18 -13 26 -29 26 -12 0 -145 -25 -296 -56 -150 -31 -277 -52 -281 -47
-12 12 -129 597 -122 605 4 3 133 32 287 63 154 31 286 63 294 71 12 10 12 18
3 39 -6 14 -17 25 -25 25 -7 0 -111 -21 -232 -46 -276 -57 -343 -69 -350 -62
-3 3 -14 50 -25 104 -11 54 -33 164 -50 244 -17 80 -33 161 -37 180 -3 19 -12
41 -21 48 -19 14 -22 14 -44 1z m125 -734 c57 -271 107 -533 105 -549 -3 -17
-21 -24 -138 -48 -74 -15 -208 -42 -298 -61 -114 -24 -165 -31 -170 -23 -10
17 -114 526 -116 570 l-1 39 275 58 c151 32 288 57 305 56 26 -2 30 -7 38 -42z"/>
</g>
</svg>
